<svg width="253" height="254" viewBox="0 0 253 254" fill="none" xmlns="http://www.w3.org/2000/svg">
<path d="M100.495 172.5C107.318 177.49 116.366 182.43 126.605 184.538C131.383 185.522 136.267 184.307 140.57 182.017L147.381 178.392C158.302 172.581 161.401 158.335 153.891 148.464C150.079 143.452 144.147 140.515 137.864 140.527L125.473 140.55L114.372 140.572C107.372 140.585 100.888 144.237 97.2454 150.219C92.7065 157.672 93.4443 167.342 100.495 172.5Z" fill="#FF6C3F"/>
<path d="M135.271 170.963C134.798 174.824 134.84 179.593 136.293 184.204C136.943 186.265 138.451 187.907 140.254 189.098L143.071 190.958C147.78 194.068 154.16 192.153 156.386 186.962C157.487 184.396 157.344 181.466 155.997 179.022L153.22 173.98L150.738 169.472C149.23 166.734 146.405 164.981 143.282 164.844C139.371 164.674 135.746 167.076 135.271 170.963Z" fill="#E83800"/>
<path d="M205.563 67.0275C202.049 38.8053 175.695 38.8053 168.667 67.0275C161.639 95.2497 163.396 109.361 163.396 109.361C158.908 116.854 175.4 122.811 187.993 121.708C200.587 120.605 208.053 117.196 209.076 109.361C209.076 109.361 209.076 95.2498 205.563 67.0275Z" fill="#FF6C3F"/>
<path d="M208.857 68.8637C208.76 67.5704 208.723 66.2756 208.683 64.9044L208.674 64.6053C208.328 52.6033 199.998 42.7702 189.495 41.6808C182.279 35.3303 172.36 32.317 162.372 33.9239L57.8273 50.7295L56.4017 50.9587L41.1669 53.4074V55.9455C41.1669 72.3791 47.5858 84.2164 60.2451 91.1274C70.292 96.6122 84.1902 99.1666 103.984 99.1666H120.594C122.641 99.1666 124.447 100.159 125.551 101.89C126.654 103.621 126.795 105.683 125.937 107.549L112.753 136.241C106.27 137.818 100.175 140.973 94.7856 145.603C87.6512 151.731 82.1761 160.245 79.2098 169.763H64.9103V193.165C64.9103 207.427 74.8169 219.279 87.2989 220.373L87.3878 220.503H157.561L158.447 219.237C164.928 209.976 168.354 198.831 168.354 187.007C168.354 184.446 168.187 181.912 167.864 179.411H200.467V124.602C202.834 123.839 205.026 122.446 206.883 120.489C209.878 117.335 211.633 113.088 211.825 108.528L211.833 108.353L208.857 68.8637ZM47.1524 58.4745L56.4022 56.9873V66.6631H48.2588C47.651 64.1305 47.2833 61.4045 47.1524 58.4745ZM70.84 175.716H78.7334C77.8044 179.708 74.7531 182.886 70.84 183.981V175.716ZM154.45 214.55H90.4604L90.4406 214.522L88.9577 214.5C78.9676 214.357 70.84 204.786 70.84 193.165V189.65C78.6208 188.227 84.5396 181.378 84.5396 173.162V172.674C87.0854 163.757 92.0663 155.775 98.6409 150.127C101.956 147.279 105.574 145.081 109.393 143.555C111.814 142.587 114.316 141.893 116.876 141.481C118.72 141.184 120.592 141.026 122.485 141.026C127.241 141.026 131.898 141.982 136.326 143.867L140.449 145.622V127.791C151.021 129.246 159.19 138.373 159.19 149.38V168.858L159.368 169.351C159.856 170.701 160.284 172.072 160.656 173.459C161.18 175.411 161.58 177.399 161.871 179.412C162.232 181.907 162.424 184.441 162.424 187.008C162.424 197.063 159.672 206.552 154.45 214.55ZM194.537 173.458H166.764C166.309 171.55 165.768 169.666 165.119 167.817V149.379C165.119 134.081 152.721 121.634 137.483 121.634H134.518V136.878C130.613 135.678 126.581 135.072 122.484 135.072C121.576 135.072 120.674 135.112 119.776 135.17L131.322 110.043C133.018 106.352 132.728 102.104 130.546 98.681C128.363 95.2574 124.643 93.2135 120.594 93.2135H103.984C73.958 93.2135 56.8973 86.8918 50.3001 72.6162H62.3314V56.0338L163.309 39.8016C169.496 38.8074 175.647 39.9663 180.833 42.8223C173.179 45.7096 167.247 53.3598 166.172 62.7901L166.129 63.1681C165.976 64.5115 165.831 65.78 165.63 67.0436L159.335 106.423L159.3 106.769C158.894 116.366 165.534 124.471 174.103 124.837L194.537 125.25V173.458ZM202.591 116.382C201.938 117.07 201.222 117.636 200.467 118.09C199.026 118.957 197.432 119.391 195.801 119.321L194.537 119.296L174.323 118.887C169.083 118.643 165.029 113.419 165.218 107.186L171.484 67.9866C171.707 66.5906 171.867 65.1946 172.02 63.8443L172.063 63.4677C173.073 54.6139 179.552 47.8383 187.048 47.5451C187.399 47.5317 187.752 47.5267 188.107 47.5421C191.455 47.685 194.533 49.1172 196.995 51.4206C200.373 54.5807 202.592 59.3834 202.748 64.7769L202.756 65.0746C202.796 66.4537 202.837 67.8795 202.945 69.3117L205.894 108.442C205.727 111.496 204.558 114.31 202.591 116.382Z" fill="#0D0B0A"/>
<path d="M129.594 188.515H100.983V194.469H129.594V188.515Z" fill="#0D0B0A"/>
<path d="M100.908 202.21L128.544 207.536L129.662 201.689L102.025 196.364L100.908 202.21Z" fill="#0D0B0A"/>
<path d="M104.995 168.474H97.0889V177.384H104.995V168.474Z" fill="#0D0B0A"/>
<path d="M141.896 56.8895H132.013V67.7847H141.896V56.8895Z" fill="#0D0B0A"/>
</svg>
